<?xml version="1.0" standalone="no"?>
<!DOCTYPE svg PUBLIC "-//W3C//DTD SVG 20010904//EN"
 "http://www.w3.org/TR/2001/REC-SVG-20010904/DTD/svg10.dtd">
<svg version="1.0" xmlns="http://www.w3.org/2000/svg"
 width="250.000000pt" height="198.000000pt" viewBox="0 0 250.000000 198.000000"
 preserveAspectRatio="xMidYMid meet">

<g transform="translate(0.000000,198.000000) scale(0.100000,-0.100000)"
fill="#000000" stroke="none">
<path d="M882 1679 c-53 -27 -119 -100 -132 -148 -25 -90 -5 -172 57 -241 108
-120 303 -103 388 34 27 44 30 58 30 131 0 73 -3 87 -30 131 -45 72 -109 108
-199 112 -57 2 -79 -1 -114 -19z m164 -171 c23 -25 23 -82 -1 -108 -25 -27
-88 -27 -115 0 -37 37 -24 105 22 125 37 15 71 9 94 -17z"/>
<path d="M1200 1635 c0 -1 11 -23 25 -47 25 -44 28 -46 275 -157 l250 -112 47
15 48 14 -45 20 c-234 106 -600 269 -600 267z"/>
<path d="M750 1288 c0 -24 49 -467 53 -481 1 -5 13 17 27 49 l24 58 -17 159
c-16 159 -16 159 -52 198 -31 35 -35 37 -35 17z"/>
<path d="M1805 1298 c-80 -28 -129 -121 -105 -201 16 -56 77 -113 128 -122
117 -19 219 84 198 201 -9 47 -66 108 -114 122 -46 14 -67 14 -107 0z m90
-104 c25 -10 37 -51 24 -77 -16 -29 -28 -37 -61 -37 -35 0 -58 24 -58 60 0 49
44 73 95 54z"/>
<path d="M1167 1069 c-148 -24 -272 -130 -320 -273 -11 -30 -17 -81 -17 -130
1 -226 174 -398 400 -397 173 0 316 99 380 261 29 75 30 193 2 273 -65 183
-255 297 -445 266z m213 -81 c123 -60 192 -166 198 -303 5 -115 -20 -180 -102
-261 -83 -82 -149 -108 -261 -102 -134 7 -240 76 -301 195 -26 52 -29 68 -29
153 0 112 18 161 85 234 80 87 153 117 275 113 64 -2 91 -8 135 -29z"/>
<path d="M1114 969 c-67 -26 -132 -83 -169 -150 -27 -49 -30 -62 -30 -149 0
-87 3 -100 30 -149 130 -234 463 -226 576 14 35 72 39 162 12 246 -24 76 -116
168 -192 192 -71 23 -163 21 -227 -4z m159 -183 c53 -22 80 -59 81 -110 1 -54
-24 -93 -77 -119 -44 -22 -85 -16 -127 19 -74 63 -53 176 40 213 34 13 46 13
83 -3z"/>
<path d="M1889 943 c-34 -4 -43 -13 -127 -131 -83 -118 -90 -131 -94 -184 -3
-31 -1 -55 3 -53 5 4 176 239 258 355 7 11 10 19 5 18 -5 -1 -25 -3 -45 -5z"/>
</g>
</svg>
