<?xml version="1.0" standalone="no"?>
<!DOCTYPE svg PUBLIC "-//W3C//DTD SVG 20010904//EN"
 "http://www.w3.org/TR/2001/REC-SVG-20010904/DTD/svg10.dtd">
<svg version="1.0" xmlns="http://www.w3.org/2000/svg"
 width="225.000000pt" height="225.000000pt" viewBox="0 0 225.000000 225.000000"
 preserveAspectRatio="xMidYMid meet">

<g transform="translate(0.000000,225.000000) scale(0.100000,-0.100000)"
fill="#000000" stroke="none">
<path d="M1012 2043 l-21 -18 19 -105 c24 -127 25 -156 5 -164 -13 -5 -45 1
-45 9 0 5 -30 169 -35 193 -5 20 -8 21 -27 11 -35 -19 -119 -101 -144 -141
-31 -48 -64 -149 -64 -193 0 -27 -4 -35 -18 -35 -32 0 -62 -29 -62 -60 0 -62
-15 -60 505 -60 520 0 505 -2 505 60 0 31 -30 60 -62 60 -14 0 -18 8 -18 35 0
44 -33 145 -64 193 -25 40 -109 122 -144 141 -25 13 -22 20 -47 -119 -18 -96
-36 -120 -66 -84 -11 13 -9 36 8 137 l22 122 -21 18 c-16 13 -39 17 -113 17
-74 0 -97 -4 -113 -17z"/>
<path d="M666 1391 c-8 -13 11 -106 29 -142 9 -16 22 -32 30 -35 7 -3 21 -24
30 -47 9 -23 37 -72 61 -108 194 -292 473 -262 647 68 26 50 54 96 62 103 17
15 45 101 45 142 l0 28 -449 0 c-254 0 -452 -4 -455 -9z"/>
<path d="M662 829 c-169 -22 -254 -93 -322 -270 -34 -88 -37 -135 -14 -185 54
-113 362 -184 799 -184 437 0 745 71 799 184 23 50 20 97 -14 185 -74 192
-166 259 -378 276 -78 7 -85 6 -98 -14 -40 -56 -176 -101 -309 -101 -133 0
-274 46 -308 101 -13 21 -44 23 -155 8z"/>
</g>
</svg>
