<?xml version="1.0" standalone="no"?>
<!DOCTYPE svg PUBLIC "-//W3C//DTD SVG 20010904//EN"
 "http://www.w3.org/TR/2001/REC-SVG-20010904/DTD/svg10.dtd">
<svg version="1.0" xmlns="http://www.w3.org/2000/svg"
 width="800.000000pt" height="800.000000pt" viewBox="0 0 800.000000 800.000000"
 preserveAspectRatio="xMidYMid meet">

<g transform="translate(0.000000,800.000000) scale(0.100000,-0.100000)"
fill="#000000" stroke="none">
<path d="M4289 6315 c-26 -14 -71 -67 -539 -634 -129 -156 -295 -356 -368
-445 -74 -88 -191 -231 -262 -317 l-128 -156 883 -883 c485 -485 885 -883 888
-884 7 -1 37 23 577 470 80 66 327 270 549 453 221 184 412 348 422 365 22 37
25 106 5 144 -8 15 -61 73 -119 130 -92 90 -108 102 -139 102 -28 0 -70 -24
-228 -135 -106 -74 -194 -135 -197 -135 -2 0 25 42 60 93 238 343 235 335 172
406 -39 43 -71 56 -107 42 -13 -5 -181 -119 -373 -254 -193 -135 -351 -244
-353 -243 -1 2 95 144 214 317 119 173 232 336 250 363 59 84 57 87 -129 273
-145 146 -166 163 -196 163 -27 0 -87 -38 -328 -206 -162 -113 -296 -204 -297
-202 -2 1 88 136 200 298 235 339 233 334 160 406 -65 66 -69 65 -244 -59 -62
-43 -115 -78 -117 -75 -2 2 34 62 81 133 115 178 117 165 -43 328 -71 71 -142
136 -160 143 -41 18 -101 17 -134 -1z"/>
<path d="M2754 4474 c-142 -180 -162 -212 -175 -270 -27 -121 9 -194 181 -369
71 -72 138 -150 150 -175 34 -66 38 -168 11 -240 -33 -86 -72 -121 -236 -216
-306 -177 -720 -469 -852 -602 -110 -110 -163 -236 -163 -387 0 -153 51 -277
160 -385 107 -108 232 -160 380 -160 157 0 287 58 402 179 162 169 434 559
615 879 30 54 66 109 79 123 75 79 218 111 326 73 44 -16 77 -42 198 -160 80
-78 159 -148 176 -157 94 -48 200 -46 282 6 59 37 298 222 308 238 6 10 -1721
1749 -1737 1749 -4 0 -51 -57 -105 -126z m-477 -2009 c71 -21 123 -63 158
-126 54 -99 35 -227 -46 -308 -102 -103 -272 -100 -369 5 -54 58 -72 105 -72
179 0 73 18 119 68 175 42 46 75 66 131 79 56 13 74 13 130 -4z"/>
</g>
</svg>
