<?xml version="1.0" standalone="no"?>
<!DOCTYPE svg PUBLIC "-//W3C//DTD SVG 20010904//EN"
 "http://www.w3.org/TR/2001/REC-SVG-20010904/DTD/svg10.dtd">
<svg version="1.0" xmlns="http://www.w3.org/2000/svg"
 width="40.000000pt" height="40.000000pt" viewBox="0 0 40.000000 40.000000"
 preserveAspectRatio="xMidYMid meet">

<g transform="translate(0.000000,40.000000) scale(0.100000,-0.100000)"
fill="#000000" stroke="none">
<path d="M30 350 c0 -5 9 -10 20 -10 11 0 20 -2 20 -4 0 -3 6 -35 14 -73 8
-37 17 -85 20 -106 4 -23 12 -37 22 -37 12 0 12 -3 2 -20 -17 -26 0 -55 32
-55 32 0 49 29 32 55 -11 19 -10 20 28 20 38 0 39 -1 28 -20 -17 -26 0 -55 32
-55 32 0 49 29 32 55 -10 16 -10 20 2 20 9 0 21 29 35 85 11 46 21 87 21 90 0
3 -18 5 -40 5 -22 0 -40 -4 -40 -10 0 -5 13 -10 29 -10 l29 0 -17 -67 -17 -68
-92 -3 c-103 -3 -92 -12 -111 91 -8 45 -8 47 15 47 13 0 24 5 24 10 0 6 -11
10 -24 10 -19 0 -26 7 -31 30 -5 25 -11 30 -36 30 -16 0 -29 -4 -29 -10z m146
-261 c10 -17 -13 -36 -27 -22 -12 12 -4 33 11 33 5 0 12 -5 16 -11z m120 0
c10 -17 -13 -36 -27 -22 -12 12 -4 33 11 33 5 0 12 -5 16 -11z"/>
<path d="M200 330 c0 -24 -4 -30 -22 -30 -21 0 -21 -2 10 -32 l32 -33 32 33
c31 30 31 32 10 32 -18 0 -22 6 -22 30 0 23 -4 30 -20 30 -16 0 -20 -7 -20
-30z"/>
</g>
</svg>
