<?xml version="1.0" standalone="no"?>
<!DOCTYPE svg PUBLIC "-//W3C//DTD SVG 20010904//EN"
 "http://www.w3.org/TR/2001/REC-SVG-20010904/DTD/svg10.dtd">
<svg version="1.0" xmlns="http://www.w3.org/2000/svg"
 width="920.000000pt" height="920.000000pt" viewBox="0 0 920.000000 920.000000"
 preserveAspectRatio="xMidYMid meet">

<g transform="translate(0.000000,920.000000) scale(0.100000,-0.100000)"
fill="#000000" stroke="none">
<path d="M1400 8339 c-41 -5 -120 -18 -174 -30 -100 -22 -274 -77 -246 -78 8
-1 76 -10 150 -21 298 -44 604 -138 845 -257 370 -185 605 -406 788 -743 43
-80 140 -300 135 -306 -5 -4 -650 -315 -687 -331 -19 -8 -30 -18 -25 -23 5 -5
124 -76 264 -158 140 -81 469 -274 730 -427 864 -507 910 -534 910 -530 0 3
29 204 65 447 35 244 100 693 145 998 44 305 87 598 95 650 7 52 13 95 12 96
-1 1 -152 -70 -335 -158 l-333 -159 -143 138 c-521 505 -1126 820 -1716 893
-98 12 -371 11 -480 -1z"/>
<path d="M7435 8339 c-279 -37 -629 -152 -875 -287 -319 -174 -584 -370 -842
-620 l-127 -123 -283 137 c-156 75 -306 147 -334 159 l-51 23 18 -121 c49
-328 299 -2055 299 -2065 0 -6 48 17 108 51 59 35 283 166 497 292 215 126
530 310 700 410 541 316 607 357 598 364 -4 4 -129 66 -278 137 -148 71 -307
147 -352 169 l-83 40 55 126 c100 234 206 398 355 553 226 234 537 411 932
530 137 41 363 89 501 106 54 7 96 14 95 16 -9 8 -236 69 -323 86 -116 22
-493 33 -610 17z"/>
<path d="M1050 5979 c-179 -104 -486 -282 -682 -396 -197 -114 -354 -210 -350
-214 6 -7 145 -87 1142 -662 201 -116 475 -274 610 -352 135 -78 407 -235 605
-349 198 -114 421 -243 496 -287 75 -43 139 -79 144 -79 8 0 91 47 620 355
215 125 470 273 567 328 98 56 176 106 175 111 -2 5 -93 61 -203 124 -191 110
-399 230 -1464 845 -504 291 -784 452 -1127 650 -111 65 -204 117 -205 116 -2
0 -149 -86 -328 -190z"/>
<path d="M7500 5986 c-173 -100 -481 -279 -685 -396 -203 -117 -523 -302 -710
-410 -187 -108 -553 -320 -813 -470 -382 -220 -471 -275 -460 -285 7 -7 314
-187 681 -399 448 -260 674 -386 685 -381 9 3 104 57 212 119 284 165 697 403
2130 1230 727 420 655 376 633 390 -10 7 -162 96 -338 198 -176 102 -473 274
-660 383 -187 109 -344 199 -350 201 -5 2 -152 -79 -325 -180z"/>
<path d="M1488 3401 l2 -869 308 -178 c169 -97 476 -275 682 -394 206 -119
542 -313 745 -430 204 -117 523 -302 710 -410 498 -289 482 -280 523 -280 l37
0 0 1701 c0 1517 -1 1700 -15 1696 -8 -2 -334 -189 -723 -415 -522 -303 -717
-412 -740 -412 -32 0 -46 8 -492 265 -250 145 -933 539 -990 572 -22 12 -42
23 -45 23 -3 0 -4 -391 -2 -869z"/>
<path d="M7605 4211 c-55 -31 -352 -203 -660 -381 -740 -428 -725 -420 -760
-420 -30 0 -92 35 -875 490 -102 59 -278 162 -392 228 l-208 120 0 -1704 0
-1704 36 0 c28 0 99 37 332 172 752 434 1865 1076 2237 1291 182 104 346 200
365 212 l35 22 0 867 c0 476 -2 866 -5 865 -3 0 -50 -26 -105 -58z"/>
</g>
</svg>
