<?xml version="1.0" standalone="no"?>
<!DOCTYPE svg PUBLIC "-//W3C//DTD SVG 20010904//EN"
 "http://www.w3.org/TR/2001/REC-SVG-20010904/DTD/svg10.dtd">
<svg version="1.0" xmlns="http://www.w3.org/2000/svg"
 width="293.000000pt" height="172.000000pt" viewBox="0 0 293.000000 172.000000"
 preserveAspectRatio="xMidYMid meet">

<g transform="translate(0.000000,172.000000) scale(0.100000,-0.100000)"
fill="#000000" stroke="none">
<path d="M1094 1436 c-235 -54 -317 -240 -249 -568 20 -96 69 -244 112 -340
l35 -77 -31 -51 c-21 -34 -31 -63 -31 -90 l0 -40 590 0 590 0 0 36 c0 28 -19
68 -80 168 l-80 132 0 287 0 287 -55 0 c-52 0 -55 -1 -55 -25 0 -25 -1 -25
-80 -25 l-80 0 0 -55 0 -55 80 0 80 0 0 -185 0 -184 -320 -3 -320 -3 0 188 0
187 80 0 80 0 0 55 0 55 -80 0 c-79 0 -80 0 -80 25 0 24 -3 25 -55 25 l-55 0
0 -288 c0 -233 -3 -292 -14 -308 -8 -10 -16 -17 -19 -14 -10 10 -80 207 -100
280 -16 57 -21 106 -21 205 -1 124 0 132 26 176 35 60 102 96 200 109 129 16
246 -10 282 -62 23 -32 20 -48 -9 -48 l-25 0 0 -185 0 -185 30 0 c30 0 30 -1
30 -55 l0 -55 50 0 50 0 0 55 c0 54 0 55 30 55 l30 0 0 185 0 185 -29 0 c-25
0 -30 5 -42 47 -17 61 -79 124 -145 147 -67 24 -240 30 -320 12z m818 -974
l47 -77 -220 -3 c-120 -1 -318 -1 -439 0 l-220 3 48 77 47 78 345 0 345 -1 47
-77z"/>
</g>
</svg>
