<?xml version="1.0" standalone="no"?>
<!DOCTYPE svg PUBLIC "-//W3C//DTD SVG 20010904//EN"
 "http://www.w3.org/TR/2001/REC-SVG-20010904/DTD/svg10.dtd">
<svg version="1.0" xmlns="http://www.w3.org/2000/svg"
 width="344.000000pt" height="344.000000pt" viewBox="0 0 344.000000 344.000000"
 preserveAspectRatio="xMidYMid meet">

<g transform="translate(0.000000,344.000000) scale(0.100000,-0.100000)"
fill="#000000" stroke="none">
<path d="M1952 3354 l-22 -15 0 -507 c0 -279 -4 -502 -9 -497 -4 6 -41 93 -81
194 -41 102 -82 193 -92 203 -38 38 -108 10 -108 -43 0 -16 29 -102 65 -191
36 -89 65 -167 65 -173 0 -5 -161 151 -358 348 -244 243 -364 357 -379 357
-29 0 -61 -29 -69 -63 -6 -27 15 -50 362 -399 329 -329 364 -367 324 -352 -25
10 -124 51 -220 91 -96 40 -185 73 -197 73 -53 0 -84 -78 -45 -113 9 -9 112
-55 227 -102 116 -48 214 -91 219 -96 6 -5 -190 -9 -486 -9 l-497 0 -15 -22
c-20 -28 -20 -58 -2 -84 14 -18 34 -19 468 -24 l453 -5 -342 -138 c-187 -77
-351 -145 -362 -153 -31 -22 -28 -77 5 -103 15 -12 31 -21 35 -21 5 0 181 70
390 155 210 85 384 155 388 155 3 0 -216 -222 -487 -493 -385 -385 -492 -498
-492 -517 0 -19 -63 -88 -275 -300 -242 -242 -275 -279 -275 -306 0 -38 27
-64 66 -64 25 0 69 40 304 275 212 212 281 275 300 275 19 0 129 104 504 478
263 262 475 468 472 457 -4 -11 -32 -84 -62 -163 -30 -78 -54 -151 -54 -162 0
-29 36 -60 69 -60 43 0 59 26 126 206 l60 159 5 -478 c5 -459 6 -479 24 -493
27 -19 59 -18 85 4 21 17 21 22 24 487 l2 470 105 -260 c57 -143 115 -270 127
-283 12 -12 31 -22 43 -22 24 0 70 42 70 64 0 9 -54 151 -120 316 -66 165
-120 303 -120 307 0 4 173 -165 384 -376 363 -363 386 -383 413 -377 35 9 50
24 59 59 6 27 -14 49 -367 404 -206 207 -367 373 -359 371 8 -3 108 -44 222
-92 113 -47 218 -86 232 -86 55 0 86 70 48 108 -10 10 -103 53 -208 96 -104
43 -200 85 -214 92 -21 11 50 13 463 14 473 0 488 1 507 20 25 25 26 61 3 89
-18 21 -22 21 -548 24 -499 2 -528 3 -495 18 19 9 211 88 425 174 215 87 398
165 408 173 17 15 23 68 9 88 -4 6 -17 16 -29 23 -26 13 -33 11 -473 -169
-151 -62 -282 -114 -290 -117 -8 -3 152 163 356 368 204 206 374 382 377 392
14 40 -40 94 -80 80 -10 -3 -200 -186 -422 -407 -222 -220 -401 -392 -398
-381 2 11 53 146 111 300 70 184 105 287 101 302 -13 54 -89 67 -119 20 -8
-12 -58 -137 -111 -277 -53 -140 -101 -262 -106 -270 -5 -9 -9 188 -9 472 l0
487 -22 15 c-12 9 -32 16 -43 16 -11 0 -31 -7 -43 -16z m85 -1240 c54 -26 86
-76 90 -142 5 -71 -24 -126 -82 -159 -145 -82 -311 78 -235 227 18 36 55 70
90 83 31 11 103 6 137 -9z"/>
<path d="M1467 3212 c-10 -10 -17 -30 -17 -45 0 -36 78 -235 101 -258 39 -39
109 -12 109 42 0 35 -75 235 -98 262 -20 23 -74 22 -95 -1z"/>
<path d="M2426 3208 c-34 -48 -7 -108 48 -108 60 0 90 67 51 110 -25 28 -79
27 -99 -2z"/>
<path d="M810 2542 c-53 -17 -69 -89 -27 -117 44 -29 221 -95 253 -95 56 0 85
69 46 108 -10 10 -61 36 -113 56 -115 47 -140 54 -159 48z"/>
<path d="M2915 1645 c-31 -30 -32 -65 -2 -92 30 -27 218 -103 255 -103 16 0
36 8 45 18 22 24 22 75 0 94 -21 17 -239 108 -260 108 -7 0 -25 -11 -38 -25z"/>
<path d="M1621 1153 c-26 -22 -114 -249 -106 -274 17 -52 92 -68 119 -26 19
28 96 232 96 253 0 21 -45 64 -68 64 -11 0 -29 -8 -41 -17z"/>
<path d="M2427 872 c-38 -42 -8 -112 47 -112 60 0 90 67 51 110 -23 25 -76 26
-98 2z"/>
</g>
</svg>
