<?xml version="1.0" standalone="no"?>
<!DOCTYPE svg PUBLIC "-//W3C//DTD SVG 20010904//EN"
 "http://www.w3.org/TR/2001/REC-SVG-20010904/DTD/svg10.dtd">
<svg version="1.0" xmlns="http://www.w3.org/2000/svg"
 width="640.000000pt" height="640.000000pt" viewBox="0 0 640.000000 640.000000"
 preserveAspectRatio="xMidYMid meet">

<g transform="translate(0.000000,640.000000) scale(0.100000,-0.100000)"
fill="#000000" stroke="none">
<path d="M1347 5641 l-48 -6 306 -255 c168 -140 313 -260 322 -267 14 -11 10
-38 -43 -263 -32 -138 -61 -254 -64 -258 -11 -17 -441 -194 -457 -189 -10 2
-162 95 -338 206 -176 110 -321 197 -323 192 -1 -4 22 -63 52 -130 132 -293
276 -530 399 -654 101 -102 134 -112 372 -112 150 1 206 5 338 29 87 15 162
26 165 24 4 -2 157 -155 341 -340 l334 -337 -692 -700 -693 -699 -79 -1 c-253
-2 -480 -191 -534 -446 -18 -88 -19 -142 0 -229 51 -240 237 -411 485 -446
169 -24 337 35 466 164 109 110 164 238 164 386 l0 75 690 695 690 695 690
-695 690 -695 0 -75 c0 -148 55 -276 164 -386 129 -129 297 -188 466 -164 248
35 434 206 485 446 19 87 18 141 0 229 -54 256 -280 444 -535 446 l-78 1 -689
695 c-378 383 -688 700 -688 704 0 4 150 159 334 344 l334 337 161 -28 c133
-23 192 -28 341 -28 238 -1 271 8 372 111 123 124 267 361 399 654 30 67 53
126 52 130 -2 5 -147 -82 -323 -192 -176 -111 -328 -204 -338 -206 -16 -5
-446 172 -457 189 -8 11 -123 508 -119 512 38 30 618 513 629 523 25 25 -517
12 -672 -16 -185 -33 -293 -76 -330 -133 -23 -35 -86 -236 -118 -378 -40 -174
-59 -311 -67 -477 l-6 -141 -349 -349 -348 -348 -350 350 -350 350 0 76 c0 93
-15 251 -36 374 -34 204 -119 497 -159 550 -63 85 -287 140 -600 150 -88 3
-194 7 -235 8 -41 2 -97 1 -123 -2z m-28 -4107 c106 -31 175 -123 175 -234 0
-78 -23 -129 -83 -183 -98 -88 -246 -82 -338 15 -122 127 -69 341 99 399 65
23 81 23 147 3z m3900 0 c171 -50 232 -265 113 -396 -66 -73 -156 -100 -247
-73 -109 31 -179 123 -179 235 0 73 17 115 68 168 68 73 149 95 245 66z"/>
</g>
</svg>
